<svg width="18" height="16" viewBox="0 0 18 16" fill="none" xmlns="http://www.w3.org/2000/svg">
<path d="M8.03 9.923L11.7 7.562C11.9107 7.426 12.016 7.23867 12.016 7C12.016 6.76133 11.9107 6.57433 11.7 6.439L8.03 4.077C7.81267 3.92433 7.58667 3.911 7.352 4.037C7.11734 4.16233 7 4.361 7 4.633V9.367C7 9.639 7.11734 9.83767 7.352 9.963C7.58667 10.089 7.813 10.0757 8.031 9.923M1.615 14C1.155 14 0.770669 13.846 0.462002 13.538C0.153335 13.23 -0.000664511 12.8453 2.15517e-06 12.384V1.616C2.15517e-06 1.15533 0.154336 0.771 0.463002 0.463C0.771669 0.155 1.15567 0.000666667 1.615 0H16.385C16.845 0 17.229 0.154333 17.537 0.463C17.845 0.771667 17.9993 1.156 18 1.616V12.385C18 12.845 17.8457 13.2293 17.537 13.538C17.2283 13.8467 16.8443 14.0007 16.385 14H12V15.192C12 15.4247 11.9233 15.6173 11.77 15.77C11.6167 15.9227 11.424 15.9993 11.192 16H6.808C6.576 16 6.38334 15.9233 6.23 15.77C6.07667 15.6167 6 15.424 6 15.192V14H1.615ZM1.615 13H16.385C16.5383 13 16.6793 12.936 16.808 12.808C16.9367 12.68 17.0007 12.5387 17 12.384V1.616C17 1.462 16.936 1.32067 16.808 1.192C16.68 1.06333 16.539 0.999333 16.385 1H1.615C1.46167 1 1.32067 1.064 1.192 1.192C1.06334 1.32 0.999335 1.46133 1 1.616V12.385C1 12.5383 1.064 12.6793 1.192 12.808C1.32 12.9367 1.461 13.0007 1.615 13Z" fill="#8D8C8E"/>
</svg>
