<svg width="18" height="14" viewBox="0 0 18 14" fill="none" xmlns="http://www.w3.org/2000/svg">
<path d="M1.616 0L3.116 3H6.116L4.616 0H6.616L8.116 3H11.116L9.616 0H11.616L13.116 3H16.116L14.616 0H16.385C16.845 0 17.2293 0.154333 17.538 0.463C17.8467 0.771667 18.0007 1.156 18 1.616V12.385C18 12.845 17.846 13.2293 17.538 13.538C17.23 13.8467 16.8457 14.0007 16.385 14H1.615C1.155 14 0.771 13.846 0.463 13.538C0.155 13.23 0.000666667 12.8453 0 12.384V1.616C0 1.15533 0.154333 0.771 0.463 0.463C0.771667 0.155 1.15567 0.000666667 1.615 0M1 4V12.385C1 12.5643 1.05767 12.7117 1.173 12.827C1.28833 12.9423 1.436 13 1.616 13H16.385C16.5643 13 16.7117 12.9423 16.827 12.827C16.9423 12.7117 17 12.5643 17 12.385V4H1Z" fill="#8D8C8E"/>
</svg>
