<svg width="20" height="20" viewBox="0 0 20 20" fill="none" xmlns="http://www.w3.org/2000/svg">
<path d="M19.5 0H0.5C0.367392 0 0.240215 0.0526785 0.146447 0.146447C0.0526785 0.240215 0 0.367392 0 0.5V19.5C0 19.6326 0.0526785 19.7598 0.146447 19.8536C0.240215 19.9473 0.367392 20 0.5 20H19.5C19.6326 20 19.7598 19.9473 19.8536 19.8536C19.9473 19.7598 20 19.6326 20 19.5V0.5C20 0.367392 19.9473 0.240215 19.8536 0.146447C19.7598 0.0526785 19.6326 0 19.5 0ZM12.5 19H1V10.5H12.5V19ZM12.5 9.5H1V1H12.5V9.5ZM19 19H13.5V1H19V19Z" fill="#8D8C8E"/>
</svg>
