<svg width="20" height="18" viewBox="0 0 20 18" fill="none" xmlns="http://www.w3.org/2000/svg">
<path d="M5.887 5.003V9.003M3.887 7.003H7.887M13.78 0.5H5.719C4.33474 0.500265 3.00727 1.05034 2.02855 2.02926C1.04983 3.00817 0.5 4.33574 0.5 5.72V13.985C0.5 16.06 3.033 17.07 4.462 15.566L7.438 12.432H12.062L14.937 15.892C16.311 17.546 19 16.574 19 14.425V5.719C18.9997 4.33492 18.4498 3.0076 17.4711 2.0289C16.4924 1.05021 15.1641 0.500265 13.78 0.5Z" stroke="#8D8C8E" stroke-linecap="round" stroke-linejoin="round"/>
<path d="M12.4111 7.00293C12.9634 7.00293 13.4111 6.55521 13.4111 6.00293C13.4111 5.45064 12.9634 5.00293 12.4111 5.00293C11.8588 5.00293 11.4111 5.45064 11.4111 6.00293C11.4111 6.55521 11.8588 7.00293 12.4111 7.00293Z" fill="#8D8C8E"/>
<path d="M14.6108 9.20312C15.1631 9.20312 15.6108 8.75541 15.6108 8.20312C15.6108 7.65084 15.1631 7.20312 14.6108 7.20312C14.0586 7.20312 13.6108 7.65084 13.6108 8.20312C13.6108 8.75541 14.0586 9.20312 14.6108 9.20312Z" fill="#8D8C8E"/>
</svg>
