<svg width="20" height="17" viewBox="0 0 20 17" fill="none" xmlns="http://www.w3.org/2000/svg">
<path d="M9.75 15.7903C8.399 14.8393 6.835 14.2333 5.195 14.0293C4.03185 13.793 2.84682 13.6813 1.66 13.6963C1.50814 13.6976 1.35752 13.6688 1.21684 13.6116C1.07616 13.5544 0.948204 13.4699 0.840355 13.363C0.732506 13.2561 0.646902 13.1289 0.588485 12.9887C0.530068 12.8485 0.499994 12.6981 0.5 12.5463L0.521 1.65328C0.520361 1.361 0.631034 1.07945 0.830527 0.865839C1.03002 0.652229 1.30336 0.522594 1.595 0.503279C2.80314 0.479263 4.0103 0.587236 5.195 0.825279C6.83322 1.03664 8.396 1.64116 9.75 2.58728M9.75 15.7903V2.58728M9.75 15.7903C11.101 14.8393 12.665 14.2333 14.305 14.0293C15.4682 13.793 16.6532 13.6813 17.84 13.6963C17.9919 13.6976 18.1425 13.6688 18.2832 13.6116C18.4238 13.5544 18.5518 13.4699 18.6596 13.363C18.7675 13.2561 18.8531 13.1289 18.9115 12.9887C18.9699 12.8485 19 12.6981 19 12.5463L18.978 1.65328C18.9787 1.36116 18.8681 1.07975 18.6688 0.866163C18.4696 0.652579 18.1965 0.522837 17.905 0.503279C16.6969 0.479263 15.4897 0.587236 14.305 0.825279C12.6668 1.03664 11.104 1.64116 9.75 2.58728" stroke="#8D8C8E" stroke-linecap="round" stroke-linejoin="round"/>
</svg>
