<svg width="19" height="20" viewBox="0 0 19 20" fill="none" xmlns="http://www.w3.org/2000/svg">
<path d="M18.1383 10.1672C18.532 9.64689 18.75 9.00939 18.75 8.34611C18.75 7.29377 18.1617 6.29767 17.2148 5.74221C16.9711 5.59922 16.6935 5.52397 16.4109 5.52424H10.7906L10.9313 2.64377C10.9641 1.94767 10.718 1.28674 10.2398 0.78283C10.0052 0.534458 9.72212 0.336845 9.40808 0.202202C9.09405 0.0675583 8.75574 -0.00125394 8.41406 1.72973e-05C7.19531 1.72973e-05 6.11719 0.82033 5.79375 1.99455L3.78047 9.28361H3.77344V19.3149H14.843C15.0586 19.3149 15.2695 19.2727 15.4641 19.1883C16.5797 18.7125 17.2992 17.6227 17.2992 16.4133C17.2992 16.118 17.257 15.8274 17.1727 15.5461C17.5664 15.0258 17.7844 14.3883 17.7844 13.725C17.7844 13.4297 17.7422 13.1391 17.6578 12.8578C18.0516 12.3375 18.2695 11.7 18.2695 11.0367C18.2648 10.7414 18.2227 10.4485 18.1383 10.1672ZM0 10.0336V18.5649C0 18.9797 0.335156 19.3149 0.75 19.3149H2.27344V9.28361H0.75C0.335156 9.28361 0 9.61877 0 10.0336Z" fill="url(#paint0_linear_22_592)"/>
<defs>
<linearGradient id="paint0_linear_22_592" x1="9.375" y1="0" x2="9.375" y2="19.3149" gradientUnits="userSpaceOnUse">
<stop stop-color="#855BFF"/>
<stop offset="1" stop-color="#9CDDFE"/>
</linearGradient>
</defs>
</svg>
