<svg width="16" height="16" viewBox="0 0 16 16" fill="none" xmlns="http://www.w3.org/2000/svg">
<path d="M7.99999 3.33334H13.3333M2.66666 12.6667H4.66666M2.66666 3.33334H5.33333M7.33333 12.6667H13.3333M11.3333 8H13.3333M2.66666 8H8.66666" stroke="#8D8C8E" stroke-linecap="round"/>
<path d="M5.33333 3.33333C5.33333 4.06971 5.93029 4.66667 6.66667 4.66667C7.40305 4.66667 8 4.06971 8 3.33333C8 2.59695 7.40305 2 6.66667 2C5.93029 2 5.33333 2.59695 5.33333 3.33333Z" stroke="#8D8C8E" stroke-linecap="round"/>
<path d="M8.66666 8C8.66666 8.73638 9.26362 9.33333 9.99999 9.33333C10.7364 9.33333 11.3333 8.73638 11.3333 8C11.3333 7.26362 10.7364 6.66666 9.99999 6.66666C9.26362 6.66666 8.66666 7.26362 8.66666 8Z" stroke="#8D8C8E" stroke-linecap="round"/>
<path d="M4.66666 12.6667C4.66666 13.403 5.26362 14 5.99999 14C6.73637 14 7.33333 13.403 7.33333 12.6667C7.33333 11.9303 6.73637 11.3333 5.99999 11.3333C5.26362 11.3333 4.66666 11.9303 4.66666 12.6667Z" stroke="#8D8C8E" stroke-linecap="round"/>
</svg>
