<svg width="13" height="13" viewBox="0 0 13 13" fill="none" xmlns="http://www.w3.org/2000/svg">
<path d="M6.50006 0C8.22331 0.00189198 9.87528 0.687722 11.0938 1.90625C12.3123 3.12483 12.9982 4.77672 13.0001 6.5C13.0001 7.78558 12.6186 9.04241 11.9044 10.1113C11.1902 11.1801 10.175 12.0129 8.98737 12.5049C7.79965 12.9969 6.49238 13.1258 5.23151 12.875C3.97077 12.6242 2.81235 12.0056 1.90338 11.0967C0.994465 10.1878 0.375932 9.02923 0.125061 7.76855C-0.125725 6.50777 0.00231693 5.20035 0.494202 4.0127C0.986169 2.82498 1.81982 1.80993 2.88873 1.0957C3.95765 0.381474 5.21448 0 6.50006 0ZM6.50006 5.41699C6.08585 5.41699 5.75006 5.75278 5.75006 6.16699V9.5C5.75024 9.91406 6.08596 10.25 6.50006 10.25C6.91404 10.2499 7.24989 9.91397 7.25006 9.5V6.16699C7.25006 5.75287 6.91415 5.41714 6.50006 5.41699ZM6.50006 3.16699C6.09505 3.16699 5.76666 3.49538 5.76666 3.90039C5.76687 4.30522 6.09518 4.63379 6.50006 4.63379C6.90493 4.63378 7.23325 4.30521 7.23346 3.90039C7.23346 3.49539 6.90506 3.167 6.50006 3.16699Z" fill="#D3D3D3"/>
</svg>
